# xmcd CD database file
#
# Track frame offsets:
#	150
#	17268
#	45020
#	57153
#	83405
#	101217
#	134075
#	149042
#	163603
#	191009
#	207086
#	229648
#	244928
#	288215
#
# Disc length: 4085 seconds
#
# Revision: 0
# Processed by: cddbd v1.5.1PL0 Copyright (c) Steve Scherf et al.
# Submitted via: CDex 1.51
#
DISCID=ba0ff30e
DTITLE=Various Artist - Killer Jazz Funk From Black Jazz Vault
DYEAR=1900
DGENRE=Jazz
TTITLE0=Gene Russell - Get Down
TTITLE1=The Awakening - Slinky
TTITLE2=Kellee Patterson - Soul Daddy (Lady)
TTITLE3=Chester Thompson - Weired Harold
TTITLE4=Roland Haynes - Funky Mama Moose
TTITLE5=Calvin Keys - Aunt Lovey
TTITLE6=Rudolph Johnson - Devon Jean
TTITLE7=Gene Russell - Listen Here
TTITLE8=Walter Bishop Jr.'s 4th Cycle - Soul Village
TTITLE9=Doug Carn - Adam's Apple
TTITLE10=Cleveland Eaton - Chi-Town Theme
TTITLE11=Henry Franklin - Plastic Creek Stomp
TTITLE12=Calvin Keys - B.K.
TTITLE13=Kellee Patterson - See You Later
EXTD=
EXTT0=
EXTT1=
EXTT2=
EXTT3=
EXTT4=
EXTT5=
EXTT6=
EXTT7=
EXTT8=
EXTT9=
EXTT10=
EXTT11=
EXTT12=
EXTT13=
PLAYORDER=
